<?xml version="1.0" encoding="utf-8"?>
<!-- Generator: Adobe Illustrator 22.0.1, SVG Export Plug-In . SVG Version: 6.00 Build 0)  -->
<svg version="1.0" id="ALL_Elements" xmlns="http://www.w3.org/2000/svg" xmlns:xlink="http://www.w3.org/1999/xlink" x="0px"
	 y="0px" viewBox="0 0 63.73 85.91" enable-background="new 0 0 63.73 85.91" xml:space="preserve">
<g id="STEP_1_-_Print">
	<g id="Printer">
		<rect x="22.13" y="70.41" fill="none" width="20.86" height="9.58"/>
		<polygon fill="none" points="38.53,49.92 38.53,53.49 42.1,53.49 		"/>
		<path fill="#F15A31" d="M44.24,74.7v-1.52v-1.25V71.4v-2.25H20.88v2.09v0.69v1.25v1.52v1.25v0.52v4.76h23.36v-4.69v-0.6V74.7z
			 M42.99,79.99H22.13v-9.58h20.86V79.99z"/>
		<path fill="#6A737B" d="M52.2,65.78c0.35,0,0.63-0.28,0.63-0.63s-0.28-0.63-0.63-0.63s-0.63,0.28-0.63,0.63
			S51.85,65.78,52.2,65.78z"/>
		<rect x="42.99" y="61.52" fill="#F15A31" width="1.25" height="0.49"/>
		<rect x="20.88" y="61.52" fill="#F15A31" width="1.25" height="0.49"/>
		<rect x="20.16" y="74.7" fill="#6A737B" width="0.71" height="1.25"/>
		<rect x="20.16" y="71.94" fill="#6A737B" width="0.71" height="1.25"/>
		<rect x="44.24" y="74.7" fill="#6A737B" width="0.44" height="1.25"/>
		<rect x="44.24" y="71.94" fill="#6A737B" width="0.44" height="1.25"/>
		<polygon fill="none" points="38.53,49.92 38.53,53.49 42.1,53.49 		"/>
		<polygon fill="#6A737B" points="47.02,62.01 47.02,56.47 44.52,56.47 44.52,57.72 45.77,57.72 45.77,62.01 44.73,62.01 
			44.24,62.01 42.99,62.01 42.36,62.01 22.71,62.01 22.13,62.01 20.88,62.01 20.34,62.01 19.36,62.01 19.36,57.72 20.48,57.72 
			20.48,56.47 18.11,56.47 18.11,62.01 9.78,62.01 9.78,75.96 20.16,75.96 20.16,74.7 11.03,74.7 11.03,73.19 20.16,73.19 
			20.16,71.94 11.03,71.94 11.03,63.27 54.09,63.27 54.09,71.94 44.68,71.94 44.68,73.19 54.09,73.19 54.09,74.7 44.68,74.7 
			44.68,75.96 55.34,75.96 55.34,62.01 		"/>
		<path fill="#F15A31" d="M20.88,57.72v0.72v3.08h1.25V49.03h15.14v5.72h5.72v6.78h1.25v-3.37v-0.44v-1.25v-0.5v-2.11l-6.09-6.08
			H20.88v7.86v0.83V57.72z M38.53,49.92l3.58,3.58h-3.58V49.92z"/>
		<rect x="20.48" y="56.47" fill="#6A737B" width="0.4" height="1.25"/>
		<rect x="44.24" y="56.47" fill="#6A737B" width="0.28" height="1.25"/>
	</g>
	<g id="Arrow_5_">
		<rect x="31.86" y="32.41" fill="#F15A31" width="1.25" height="11.54"/>
		<g>
			
				<rect x="29.28" y="37.1" transform="matrix(-0.7071 0.7071 -0.7071 -0.7071 80.3 49.4745)" fill="#F15A31" width="1.25" height="8.55"/>
			
				<rect x="34.44" y="37.1" transform="matrix(0.7071 0.7071 -0.7071 0.7071 39.5207 -12.6756)" fill="#F15A31" width="1.25" height="8.55"/>
		</g>
	</g>
	<g id="Computer">
		<g>
			<path fill="#6A737B" d="M49.51,22.96V2.8H15.46v20.16H9.78v3.76h45.56v-3.76H49.51z M16.71,4.06h31.55v18.91H16.71V4.06z
				 M54.09,25.47H11.03v-1.25h43.06V25.47z"/>
			<circle fill="#6A737B" cx="32.48" cy="5.94" r="0.63"/>
		</g>
		<path fill="#F15A31" d="M24.62,19.22v0.72v1.08h1.25V10.54h7.65v5.72h5.72v4.78h1.25v-1.37v-0.44v-1.25v-0.5v-2.11L34.4,9.28
			h-9.78v7.86v0.83V19.22z M34.77,11.42L38.35,15h-3.58V11.42z"/>
	</g>
</g>
<g id="STEP_2_-_Package" display="none">
	<path id="Open_Box" display="inline" fill="#6A737B" d="M58.86,60.3l-8.09-3.03l6.9-2.58l1.8-0.67l-1.79-0.67l-14.71-5.49
		l-1.79-0.67l-1.8,0.67l-6.9,2.58l-6.91-2.58l-1.79-0.67l-1.79,0.67l-14.71,5.5l-1.79,0.67l1.79,0.67l6.91,2.58l-8.08,3.02
		l-1.8,0.67l1.79,0.67l9.18,3.43v12.44l17.2,6.42l17.2-6.42V65.07l9.19-3.43l1.79-0.67L58.86,60.3z M41.18,48.53l14.71,5.5
		l-6.9,2.58l-14.71-5.49L41.18,48.53z M47.19,57.27l-14.71,5.49l-14.71-5.49l14.71-5.49L47.19,57.27z M9.08,54.02l14.71-5.49
		l6.91,2.58l-14.71,5.49L9.08,54.02z M7.9,60.97l8.08-3.02l14.71,5.49l-8.08,3.02L7.9,60.97z M31.85,82.36l-15.32-5.73v-11.1
		l4.27,1.6l1.79,0.67l1.8-0.67l7.45-2.79V82.36z M48.43,76.63l-15.32,5.73V64.34l7.47,2.79l1.79,0.67l1.79-0.67l4.27-1.6V76.63z
		 M42.36,66.46l-8.09-3.02l14.71-5.49l8.09,3.02L42.36,66.46z"/>
	<g id="Arrow_3_" display="inline">
		<rect x="31.86" y="32.41" fill="#F15A31" width="1.25" height="11.54"/>
		<g>
			
				<rect x="29.28" y="37.1" transform="matrix(-0.7071 0.7071 -0.7071 -0.7071 80.3 49.4745)" fill="#F15A31" width="1.25" height="8.55"/>
			
				<rect x="34.44" y="37.1" transform="matrix(0.7071 0.7071 -0.7071 0.7071 39.5207 -12.6756)" fill="#F15A31" width="1.25" height="8.55"/>
		</g>
	</g>
	<g id="Headset" display="inline">
		<path fill="#F15A31" stroke="#F15A31" stroke-width="1.5" stroke-linecap="round" stroke-miterlimit="10" d="M39.76,6.73
			l-0.88,0.7c-1.57-0.85-3.64-1.4-6.4-1.4c-2.7,0-4.73,0.55-6.27,1.39l-0.89-0.69C25.32,6.73,31.99,0.66,39.76,6.73z"/>
		<path fill="none" stroke="#F15A31" stroke-width="1.5" stroke-linecap="round" stroke-miterlimit="10" d="M42.85,17.83
			c0,0,1.79-14.05-10.48-14.05"/>
		<path fill="none" stroke="#F15A31" stroke-width="1.5" stroke-linecap="round" stroke-miterlimit="10" d="M42.32,21.91
			c0,5.93-4.58,7.09-7.51,7.35l0-1.37h1.4V29"/>
		<path fill="#F15A31" stroke="#F15A31" stroke-width="1.5" stroke-linecap="round" stroke-miterlimit="10" d="M24.88,22.97
			l-0.46,0.06c-0.84,0.11-1.61-0.5-1.72-1.34l-0.48-3.83c-0.11-0.84,0.5-1.61,1.34-1.72l0.46-0.06c0.84-0.11,1.61,0.5,1.72,1.34
			l0.48,3.83C26.32,22.09,25.72,22.86,24.88,22.97z"/>
		<path fill="none" stroke="#F15A31" stroke-width="1.5" stroke-linecap="round" stroke-miterlimit="10" d="M32.71,3.77
			c-12.27,0-10.48,14.05-10.48,14.05"/>
		<path fill="#F15A31" stroke="#F15A31" stroke-width="1.5" stroke-linecap="round" stroke-miterlimit="10" d="M40.21,22.97
			l0.46,0.06c0.84,0.11,1.61-0.5,1.72-1.34l0.48-3.83c0.11-0.84-0.5-1.61-1.34-1.72l-0.46-0.06c-0.84-0.11-1.61,0.5-1.72,1.34
			l-0.48,3.83C38.77,22.09,39.37,22.86,40.21,22.97z"/>
	</g>
</g>
<g id="STEP_3_-_Pack_Label" display="none">
	<g display="inline">
		<g>
			<path fill="#F15A31" stroke="#F15A31" stroke-width="1.5" stroke-linecap="round" stroke-miterlimit="10" d="M39.7,57.47
				l-0.88,0.7c-1.57-0.85-3.64-1.4-6.4-1.4c-2.7,0-4.73,0.55-6.27,1.39l-0.89-0.69C25.26,57.47,31.93,51.41,39.7,57.47z"/>
			<path fill="none" stroke="#F15A31" stroke-width="1.5" stroke-linecap="round" stroke-miterlimit="10" d="M41.48,59.83
				c-1.38-2.85-4.05-5.3-9.17-5.3"/>
			<path fill="none" stroke="#F15A31" stroke-width="1.5" stroke-linecap="round" stroke-miterlimit="10" d="M32.65,54.51
				c-5.12,0-7.79,2.45-9.17,5.3"/>
		</g>
		<path fill="#6A737B" d="M58.86,60.3l-8.09-3.03l6.9-2.58l1.8-0.67l-1.79-0.67l-14.71-5.49l-1.79-0.67l-1.8,0.67l-6.9,2.58
			l-6.91-2.58l-1.79-0.67l-1.79,0.67l-14.71,5.5l-1.79,0.67l1.79,0.67l6.91,2.58l-8.08,3.02l-1.8,0.67l1.79,0.67l9.18,3.43v12.44
			l17.2,6.42l17.2-6.42V65.07l9.19-3.43l1.79-0.67L58.86,60.3z M41.18,48.53l14.71,5.5l-6.9,2.58l-14.71-5.49L41.18,48.53z
			 M47.19,57.27l-14.71,5.49l-14.71-5.49l14.71-5.49L47.19,57.27z M9.08,54.02l14.71-5.49l6.91,2.58l-14.71,5.49L9.08,54.02z
			 M7.9,60.97l8.08-3.02l14.71,5.49l-8.08,3.02L7.9,60.97z M31.85,82.36l-15.32-5.73v-11.1l4.27,1.6l1.79,0.67l1.8-0.67l7.45-2.79
			V82.36z M48.43,76.63l-15.32,5.73V64.34l7.47,2.79l1.79,0.67l1.79-0.67l4.27-1.6V76.63z M42.36,66.46l-8.09-3.02l14.71-5.49
			l8.09,3.02L42.36,66.46z"/>
	</g>
	<g id="Arrow_4_" display="inline">
		<rect x="31.86" y="32.41" fill="#F15A31" width="1.25" height="11.54"/>
		<g>
			
				<rect x="29.28" y="37.1" transform="matrix(-0.7071 0.7071 -0.7071 -0.7071 80.3 49.4745)" fill="#F15A31" width="1.25" height="8.55"/>
			
				<rect x="34.44" y="37.1" transform="matrix(0.7071 0.7071 -0.7071 0.7071 39.5207 -12.6756)" fill="#F15A31" width="1.25" height="8.55"/>
		</g>
	</g>
	<g id="Slip_1_" display="inline">
		<g>
			<path fill="none" stroke="#F15A31" stroke-width="1.5" stroke-linecap="round" stroke-miterlimit="10" d="M23.63,29.2"/>
			<path fill="#F15A31" d="M23.63,22.03c-0.41,0-0.75-0.34-0.75-0.75V3.08h13.49l5.72,5.72v12.44c0,0.41-0.34,0.75-0.75,0.75
				s-0.75-0.34-0.75-0.75V9.43l-4.84-4.84H24.38v16.7C24.38,21.7,24.04,22.03,23.63,22.03z"/>
			<path fill="none" stroke="#F15A31" stroke-width="1.5" stroke-linecap="round" stroke-miterlimit="10" d="M41.34,29.2"/>
			<path fill="#F15A31" d="M41.34,9.86H35.3V3.83c0-0.41,0.34-0.75,0.75-0.75s0.75,0.34,0.75,0.75v4.53h4.53
				c0.41,0,0.75,0.34,0.75,0.75S41.75,9.86,41.34,9.86z"/>
		</g>
		<g>
			<rect x="23.48" y="19.35" fill="#F15A31" width="2" height="1.5"/>
			<path fill="#F15A31" d="M37.89,20.85h-2.54v-1.5h2.54V20.85z M33.75,20.85h-2.54v-1.5h2.54V20.85z M29.61,20.85h-2.53v-1.5h2.53
				V20.85z"/>
			<rect x="39.5" y="19.35" fill="#F15A31" width="2" height="1.5"/>
		</g>
		<g>
			<g>
				<path fill="#F15A31" d="M48.94,18.72c-0.24,0-0.47-0.03-0.71-0.09c-0.7-0.19-1.29-0.64-1.66-1.27c-0.75-1.3-0.3-2.97,1-3.73
					c1.3-0.75,2.98-0.3,3.73,1l0,0c0.75,1.3,0.3,2.97-1,3.73C49.88,18.59,49.41,18.72,48.94,18.72z M48.94,14.76
					c-0.21,0-0.42,0.05-0.61,0.16c-0.59,0.34-0.79,1.09-0.45,1.68c0.16,0.28,0.43,0.49,0.75,0.57c0.32,0.08,0.65,0.04,0.93-0.12
					c0.59-0.34,0.79-1.09,0.45-1.68l0,0C49.77,14.98,49.36,14.76,48.94,14.76z"/>
				<path fill="#F15A31" d="M41.75,23.17c-0.26,0-0.51-0.13-0.65-0.38c-0.21-0.36-0.08-0.82,0.27-1.02l8.18-4.72
					c0.36-0.21,0.82-0.08,1.02,0.27c0.21,0.36,0.08,0.82-0.27,1.02l-8.18,4.72C42.01,23.14,41.88,23.17,41.75,23.17z"/>
			</g>
			<g>
				<path fill="#F15A31" d="M48.93,27.19c-0.46,0-0.93-0.12-1.36-0.36c-1.3-0.75-1.75-2.42-1-3.73c0.36-0.63,0.95-1.08,1.66-1.27
					c0.7-0.19,1.44-0.09,2.07,0.27c1.3,0.75,1.75,2.42,1,3.73C50.8,26.7,49.88,27.19,48.93,27.19z M48.94,23.24
					c-0.11,0-0.21,0.01-0.32,0.04c-0.32,0.08-0.58,0.29-0.75,0.57c-0.34,0.59-0.14,1.34,0.45,1.68c0.59,0.34,1.34,0.14,1.68-0.45
					l0,0c0.34-0.59,0.14-1.34-0.45-1.68C49.36,23.29,49.15,23.24,48.94,23.24z"/>
				<path fill="#F15A31" d="M49.93,23.5c-0.13,0-0.26-0.03-0.37-0.1l-11.29-6.52c-0.36-0.21-0.48-0.67-0.27-1.02
					c0.21-0.36,0.66-0.48,1.02-0.27L50.3,22.1c0.36,0.21,0.48,0.67,0.27,1.02C50.44,23.37,50.19,23.5,49.93,23.5z"/>
			</g>
		</g>
		<polygon fill="#6A737B" points="42.09,30.01 22.88,30.01 22.88,20.85 24.38,20.85 24.38,28.51 40.59,28.51 40.59,20.85 
			42.09,20.85 		"/>
		<g>
			<g>
				<path fill="#F15A31" d="M33.33,14.26h-1.2v-2.75l-0.57,0.22l-0.45-0.91l1.36-0.66h0.86V14.26z"/>
			</g>
		</g>
		<g>
			<g>
				<path fill="#6A737B" d="M33.93,26.73h-2.84v-0.89l0.09-0.08c1.02-0.86,1.49-1.44,1.49-1.81c0-0.09,0-0.26-0.37-0.26
					c-0.19,0-0.44,0.05-0.72,0.16l-0.24,0.09l-0.36-1.02l0.21-0.09c0.35-0.16,0.77-0.25,1.15-0.25c0.92,0,1.54,0.55,1.54,1.36
					c0,0.66-0.39,1.2-0.87,1.68h0.92V26.73z"/>
			</g>
		</g>
	</g>
</g>
<g id="STEP_4_-_Label" display="none">
	<g id="Box" display="inline">
		<g>
			<path fill="#6A737B" d="M40.12,52.73c-0.01-0.01-0.02-0.02-0.03-0.03l-9.2,3.44c0.49,0.18,0.91,0.49,1.23,0.88l9.38-3.5
				C40.99,53.37,40.53,53.1,40.12,52.73z"/>
			<path fill="#6A737B" d="M49.09,55.65l-0.55-0.21l-14.16-5.29l-1.78-0.67l-1.79,0.67l-14.16,5.29l-0.55,0.21l-0.7,0.26v20.64
				l1.25,0.47l14.15,5.28l1.17,0.43l0.63,0.23l0.62-0.23l1.17-0.43l14.16-5.29l1.25-0.46V55.91L49.09,55.65z M32.6,61.81l-0.63-0.23
				l-3.6-1.35c0.04,0.41,0.03,0.81-0.1,1.25c0,0.01-0.01,0.03-0.02,0.04l2.56,0.96l1.16,0.43v18.49l-15.32-5.73V57.2l3.99,1.49
				c0.14-0.28,0.31-0.55,0.52-0.79c0.08-0.09,0.18-0.17,0.28-0.25l-3.56-1.33l14.72-5.49l14.71,5.49l-14.09,5.27L32.6,61.81z
				 M48.54,75.68l-15.32,5.73V62.92l1.16-0.43l14.16-5.29V75.68z"/>
		</g>
		<path fill="#F15A31" d="M35.28,57.3l-5.57-2.08l-1.79-0.67l-1.79,0.67l-4.99,1.86l-1.25,0.47v9.78l1.25,0.47l6.22,2.32l1.25,0.47
			v-9.46l6.67-2.49l1.79-0.67L35.28,57.3z M28.61,59.79l-1.25,0.47v8.52l-6.22-2.32v-8.05l6.78-2.53l5.57,2.08L28.61,59.79z"/>
	</g>
	<g id="Arrow_2_" display="inline">
		<rect x="31.86" y="32.41" fill="#F15A31" width="1.25" height="11.54"/>
		<g>
			
				<rect x="29.28" y="37.1" transform="matrix(-0.7071 0.7071 -0.7071 -0.7071 80.3 49.4745)" fill="#F15A31" width="1.25" height="8.55"/>
			
				<rect x="34.44" y="37.1" transform="matrix(0.7071 0.7071 -0.7071 0.7071 39.5207 -12.6756)" fill="#F15A31" width="1.25" height="8.55"/>
		</g>
	</g>
	<g id="Slip" display="inline">
		<g>
			<path fill="none" stroke="#6A737B" stroke-width="1.5" stroke-miterlimit="10" d="M23.63,28.97"/>
			<polygon fill="#6A737B" points="42.08,20.01 40.58,20.01 40.58,9.2 35.74,4.36 24.38,4.36 24.38,20.01 22.88,20.01 22.88,2.86 
				36.37,2.86 42.08,8.58 			"/>
			<path fill="none" stroke="#6A737B" stroke-width="1.5" stroke-miterlimit="10" d="M41.34,28.97"/>
			<polygon fill="#6A737B" points="41.33,9.64 35.3,9.64 35.3,3.61 36.8,3.61 36.8,8.14 41.33,8.14 			"/>
		</g>
		<g>
			<rect x="23.48" y="19.39" fill="#F15A31" width="2" height="1.5"/>
			<path fill="#F15A31" d="M37.89,20.89h-2.53v-1.5h2.53V20.89z M33.75,20.89h-2.53v-1.5h2.53V20.89z M29.61,20.89h-2.53v-1.5h2.53
				V20.89z"/>
			<rect x="39.5" y="19.39" fill="#F15A31" width="2" height="1.5"/>
		</g>
		<g>
			<g>
				<path fill="#F15A31" d="M48.94,18.49c-0.24,0-0.47-0.03-0.71-0.09c-0.7-0.19-1.29-0.64-1.66-1.27s-0.46-1.37-0.27-2.07
					c0.19-0.7,0.64-1.29,1.27-1.66c0.63-0.36,1.37-0.46,2.07-0.27c0.7,0.19,1.29,0.64,1.66,1.27c0.37,0.63,0.46,1.37,0.27,2.07
					c-0.19,0.7-0.64,1.29-1.27,1.66C49.88,18.37,49.41,18.49,48.94,18.49z M48.94,14.53c-0.21,0-0.42,0.06-0.61,0.17
					c-0.28,0.16-0.49,0.43-0.57,0.75c-0.08,0.32-0.04,0.65,0.12,0.93c0.16,0.28,0.43,0.49,0.75,0.57c0.32,0.08,0.65,0.04,0.93-0.12
					c0.28-0.16,0.49-0.43,0.57-0.75c0.08-0.32,0.04-0.65-0.12-0.93v0c-0.16-0.28-0.43-0.49-0.75-0.57
					C49.15,14.55,49.04,14.53,48.94,14.53z"/>
				<path fill="#F15A31" d="M41.75,22.95c-0.26,0-0.51-0.13-0.65-0.38c-0.21-0.36-0.08-0.82,0.27-1.02l8.18-4.72
					c0.36-0.21,0.82-0.08,1.02,0.27c0.21,0.36,0.08,0.82-0.27,1.02l-8.18,4.72C42.01,22.91,41.88,22.95,41.75,22.95z"/>
			</g>
			<g>
				<path fill="#F15A31" d="M48.93,26.97c-0.47,0-0.94-0.12-1.36-0.37c-0.63-0.36-1.08-0.95-1.27-1.66
					c-0.19-0.7-0.09-1.44,0.27-2.07c0.36-0.63,0.95-1.08,1.66-1.27c0.7-0.19,1.44-0.09,2.07,0.27c0.63,0.36,1.08,0.95,1.27,1.66
					c0.19,0.7,0.09,1.44-0.27,2.07l0,0c-0.36,0.63-0.95,1.08-1.66,1.27C49.41,26.94,49.17,26.97,48.93,26.97z M48.94,23.01
					c-0.11,0-0.21,0.01-0.32,0.04c-0.32,0.08-0.58,0.29-0.75,0.57s-0.21,0.62-0.12,0.93c0.08,0.32,0.29,0.58,0.57,0.75
					s0.62,0.21,0.93,0.12c0.32-0.08,0.58-0.29,0.75-0.57v0c0.16-0.28,0.21-0.61,0.12-0.93c-0.08-0.32-0.29-0.58-0.57-0.75
					C49.36,23.07,49.15,23.01,48.94,23.01z"/>
				<path fill="#F15A31" d="M49.93,23.28c-0.13,0-0.26-0.03-0.37-0.1l-11.29-6.52c-0.36-0.21-0.48-0.67-0.27-1.02
					c0.21-0.36,0.66-0.48,1.02-0.27l11.29,6.52c0.36,0.21,0.48,0.67,0.27,1.02C50.44,23.14,50.19,23.28,49.93,23.28z"/>
			</g>
		</g>
		<polygon fill="#F15A31" points="42.08,29.72 22.88,29.72 22.88,19.39 24.38,19.39 24.38,28.22 40.58,28.22 40.58,19.39 
			42.08,19.39 		"/>
		<g>
			<g>
				<g>
					<path fill="#6A737B" d="M33.32,14h-1.2v-2.75l-0.57,0.22l-0.45-0.91l1.36-0.66h0.86V14z"/>
				</g>
			</g>
		</g>
		<g>
			<g>
				<g>
					<path fill="#F15A31" d="M33.93,26.47h-2.84v-0.89l0.09-0.08c1.02-0.86,1.49-1.44,1.49-1.81c0-0.09,0-0.26-0.37-0.26
						c-0.19,0-0.44,0.05-0.72,0.16l-0.24,0.09l-0.36-1.02l0.21-0.09c0.35-0.16,0.77-0.25,1.15-0.25c0.92,0,1.54,0.55,1.54,1.36
						c0,0.66-0.39,1.2-0.87,1.68h0.92V26.47z"/>
				</g>
			</g>
		</g>
	</g>
</g>
<g id="STEP_5_-_Ship" display="none">
	<g id="Carrier" display="inline">
		<g>
			<rect x="9.7" y="74.43" fill="#6A737B" width="45.56" height="1.24"/>
			
				<rect x="8.55" y="73.28" transform="matrix(-1.836970e-16 1 -1 -1.836970e-16 84.2211 63.5777)" fill="#6A737B" width="3.54" height="1.24"/>
			
				<rect x="2.74" y="61.45" transform="matrix(-1.836970e-16 1 -1 -1.836970e-16 74.8702 49.262)" fill="#6A737B" width="20.13" height="1.24"/>
			
				<rect x="9.7" y="70.89" transform="matrix(-1 -1.224647e-16 1.224647e-16 -1 23.1258 143.0194)" fill="#6A737B" width="3.72" height="1.24"/>
			<polygon fill="#6A737B" points="12.18,52 12.18,53.24 43.06,53.24 42.34,52 			"/>
			<polygon fill="#6A737B" points="54.02,75.67 55.26,75.67 55.26,65.78 54.02,65.06 			"/>
			<polygon fill="#6A737B" points="48.71,60.56 44.49,53.24 43.06,53.24 47.39,60.74 47.8,61.46 49.2,62.27 54.02,65.06 
				54.02,63.62 			"/>
			<polygon fill="#6A737B" points="43.77,52 42.34,52 43.06,53.24 44.49,53.24 			"/>
			<polygon fill="#6A737B" points="54.02,63.62 54.02,65.06 55.26,65.78 55.26,64.34 			"/>
			<circle fill="#6A737B" cx="20.39" cy="75.05" r="4.54"/>
			<circle fill="#6A737B" cx="46.1" cy="75.05" r="4.54"/>
			<polygon fill="#6A737B" points="45.14,61.46 41.82,55.71 37.14,55.71 37.14,61.46 			"/>
		</g>
		<g>
			<path fill="#F15A31" d="M32.48,55.71H18.17v1.18l0.08,0.07h-0.08v9.05h14.31v-9.05h-0.07l0.07-0.06V55.71z M30.43,56.96
				l-5.1,4.16l-5.1-4.16H30.43z M31.23,64.76H19.42v-6.84l4.92,4.01l0.99,0.81l0.99-0.81l4.91-4.01V64.76z"/>
			<polygon fill="#F15A31" points="18.17,56.89 18.25,56.96 18.17,56.96 			"/>
			<polygon fill="#F15A31" points="32.48,56.91 32.48,56.96 32.41,56.96 			"/>
			<polygon fill="#F15A31" points="18.25,56.96 18.17,56.96 18.17,56.89 			"/>
			<polygon fill="#F15A31" points="32.48,56.91 32.48,56.96 32.41,56.96 			"/>
		</g>
	</g>
	<g id="Arrow_1_" display="inline">
		<rect x="31.86" y="32.41" fill="#F15A31" width="1.25" height="11.54"/>
		<g>
			
				<rect x="29.28" y="37.1" transform="matrix(-0.7071 0.7071 -0.7071 -0.7071 80.3 49.4745)" fill="#F15A31" width="1.25" height="8.55"/>
			
				<rect x="34.44" y="37.1" transform="matrix(0.7071 0.7071 -0.7071 0.7071 39.5207 -12.6756)" fill="#F15A31" width="1.25" height="8.55"/>
		</g>
	</g>
	<g id="Box_1_" display="inline">
		<g>
			<path fill="#6A737B" d="M38.46,5.33c-0.01-0.01-0.01-0.02-0.02-0.02l-7.3,2.73c0.39,0.14,0.72,0.39,0.98,0.7l7.45-2.78
				C39.15,5.83,38.78,5.62,38.46,5.33z"/>
			<path fill="#6A737B" d="M45.58,7.65l-0.44-0.17L33.9,3.28l-1.42-0.53l-1.42,0.53l-11.24,4.2l-0.44,0.17l-0.55,0.21v16.39
				l0.99,0.37l11.24,4.2l0.93,0.34l0.5,0.19l0.49-0.19l0.93-0.34l11.24-4.2l0.99-0.37V7.85L45.58,7.65z M32.48,12.54l-0.5-0.18
				l-2.86-1.07c0.03,0.33,0.03,0.64-0.08,0.99c0,0.01-0.01,0.02-0.01,0.03l2.03,0.76l0.92,0.34V28.1l-12.16-4.55V8.87l3.17,1.18
				c0.11-0.22,0.24-0.44,0.41-0.63c0.07-0.07,0.14-0.14,0.22-0.2l-2.83-1.06l11.69-4.36l11.68,4.36l-11.19,4.18L32.48,12.54z
				 M45.14,23.55L32.98,28.1V13.41l0.92-0.34l11.25-4.2V23.55z"/>
		</g>
		<path fill="#F15A31" d="M34.61,8.95L30.19,7.3l-1.42-0.53L27.35,7.3l-3.96,1.48l-0.99,0.37v7.77l0.99,0.37l4.94,1.85l0.99,0.37
			v-7.51l5.3-1.98l1.42-0.53L34.61,8.95z M29.31,10.93l-0.99,0.37v6.77l-4.94-1.84V9.84l5.38-2.01l4.43,1.65L29.31,10.93z"/>
	</g>
</g>
<g>
</g>
<g>
</g>
<g>
</g>
<g>
</g>
<g>
</g>
<g>
</g>
<g>
</g>
<g>
</g>
<g>
</g>
<g>
</g>
<g>
</g>
<g>
</g>
<g>
</g>
<g>
</g>
<g>
</g>
</svg>
